<?xml version="1.0" standalone="no"?>
<svg xmlns="http://www.w3.org/2000/svg" viewBox="0 0 182.232 29" width="182.232" height="29"><g fill="#ff6506" color="#ff6506" transform="translate(0, 0) scale(0.29)"><svg width="100.0" height="100.0" x="0.0" y="0.0" viewBox="0 0 100 100"><g><circle cx="12.5" cy="12.5" r="7.7"></circle><circle cx="87.5" cy="12.5" r="7.7"></circle><path d="M87.5,29.8c-1.4,0-2.7,0.4-3.8,1L69.1,16.3c0.6-1.1,1-2.4,1-3.8c0-4.2-3.4-7.7-7.7-7.7s-7.7,3.4-7.7,7.7s3.4,7.7,7.7,7.7   c1.4,0,2.7-0.4,3.8-1l14.5,14.5c-0.6,1.1-1,2.4-1,3.8s0.4,2.7,1,3.8L66.3,55.9c-1.1-0.6-2.4-1-3.8-1c-4.2,0-7.7,3.4-7.7,7.7   s3.4,7.7,7.7,7.7s7.7-3.4,7.7-7.7c0-1.4-0.4-2.7-1-3.8l14.5-14.5c1.1,0.6,2.4,1,3.8,1c4.2,0,7.7-3.4,7.7-7.7S91.7,29.8,87.5,29.8z"></path><path d="M12.5,45.2c4.2,0,7.7-3.4,7.7-7.7c0-1.4-0.4-2.7-1-3.8l14.5-14.5c1.1,0.6,2.4,1,3.8,1s2.7-0.4,3.8-1l14.5,14.5   c-0.6,1.1-1,2.4-1,3.8c0,4.2,3.4,7.7,7.7,7.7s7.7-3.4,7.7-7.7s-3.4-7.7-7.7-7.7c-1.4,0-2.7,0.4-3.8,1L44.1,16.3   c0.6-1.1,1-2.4,1-3.8c0-4.2-3.4-7.7-7.7-7.7s-7.7,3.4-7.7,7.7c0,1.4,0.4,2.7,1,3.8L16.3,30.9c-1.1-0.6-2.4-1-3.8-1   c-4.2,0-7.7,3.4-7.7,7.7S8.3,45.2,12.5,45.2z"></path><circle cx="12.5" cy="87.5" r="7.7"></circle><path d="M37.5,79.8c-1.4,0-2.7,0.4-3.8,1L19.1,66.3c0.6-1.1,1-2.4,1-3.8s-0.4-2.7-1-3.8l14.5-14.5c1.1,0.6,2.4,1,3.8,1   c4.2,0,7.7-3.4,7.7-7.7s-3.4-7.7-7.7-7.7s-7.7,3.4-7.7,7.7c0,1.4,0.4,2.7,1,3.8L16.3,55.9c-1.1-0.6-2.4-1-3.8-1   c-4.2,0-7.7,3.4-7.7,7.7s3.4,7.7,7.7,7.7c1.4,0,2.7-0.4,3.8-1l14.5,14.5c-0.6,1.1-1,2.4-1,3.8c0,4.2,3.4,7.7,7.7,7.7   s7.7-3.4,7.7-7.7S41.7,79.8,37.5,79.8z"></path><circle cx="87.5" cy="87.5" r="7.7"></circle><path d="M87.5,54.8c-4.2,0-7.7,3.4-7.7,7.7c0,1.4,0.4,2.7,1,3.8L66.3,80.9c-1.1-0.6-2.4-1-3.8-1s-2.7,0.4-3.8,1L44.1,66.3   c0.6-1.1,1-2.4,1-3.8c0-4.2-3.4-7.7-7.7-7.7s-7.7,3.4-7.7,7.7s3.4,7.7,7.7,7.7c1.4,0,2.7-0.4,3.8-1l14.5,14.5c-0.6,1.1-1,2.4-1,3.8   c0,4.2,3.4,7.7,7.7,7.7s7.7-3.4,7.7-7.7c0-1.4-0.4-2.7-1-3.8l14.5-14.5c1.1,0.6,2.4,1,3.8,1c4.2,0,7.7-3.4,7.7-7.7   S91.7,54.8,87.5,54.8z"></path></g></svg></g><line x1="41" y1="1" x2="41" y2="28" stroke="#ffffff" stroke-linecap="round"></line><path fill="#ffffff" fill-rule="nonzero" d="M10.18 4.03L10.18 5.50L1.10 9.72L10.18 14.33L10.18 15.77L0 10.63L0 8.78L10.18 4.03ZM18.41 0.29L19.90 0.29L12.31 16.20L10.80 16.20L18.41 0.29ZM27.38 9.53L22.25 0.29L24.12 0.29L28.25 7.97L32.38 0.29L34.25 0.29L29.14 9.53L29.14 15.48L27.38 15.48L27.38 9.53ZM37.22 14.52L37.22 14.52Q37.22 14.54 37.22 14.57L37.22 14.57Q37.22 15.60 36.24 15.60L36.24 15.60Q35.21 15.60 35.21 14.54L35.21 14.54Q35.26 13.56 36.24 13.56L36.24 13.56Q37.22 13.56 37.22 14.52ZM40.61 14.23L40.61 14.23L41.38 13.15Q43.13 14.16 45.10 14.16L45.10 14.16Q46.61 14.16 47.47 13.45Q48.34 12.74 48.34 11.45L48.34 11.45Q48.34 9.24 45.43 8.23L45.43 8.23Q42.96 7.39 41.86 6.36Q40.75 5.33 40.75 3.84L40.75 3.84Q40.75 2.06 42.14 0.98L42.14 0.98Q43.42 0 45.48 0L45.48 0Q47.74 0 49.58 1.25L49.58 1.25L48.79 2.33Q47.30 1.54 45.60 1.54L45.60 1.54Q44.21 1.54 43.39 2.14Q42.58 2.74 42.58 3.77L42.58 3.77Q42.58 5.38 45.07 6.31L45.07 6.31Q47.90 7.39 49.04 8.53Q50.18 9.67 50.18 11.50L50.18 11.50Q50.18 13.58 48.58 14.78L48.58 14.78Q47.26 15.77 45.36 15.77L45.36 15.77Q42.98 15.77 40.61 14.23ZM55.70 14.52L55.70 14.52Q55.70 14.54 55.70 14.57L55.70 14.57Q55.70 15.60 54.72 15.60L54.72 15.60Q53.69 15.60 53.69 14.54L53.69 14.54Q53.74 13.56 54.72 13.56L54.72 13.56Q55.70 13.56 55.70 14.52ZM75.58 1.51L75.58 1.51L74.86 2.54Q73.25 1.54 71.57 1.54L71.57 1.54Q69.26 1.54 67.94 3.43L67.94 3.43Q66.72 5.16 66.72 8.04L66.72 8.04Q66.72 11.04 68.30 12.72L68.30 12.72Q69.65 14.18 71.76 14.18L71.76 14.18Q73.49 14.18 75.05 13.06L75.05 13.06L75.77 14.14Q73.90 15.77 71.52 15.77L71.52 15.77Q68.23 15.77 66.36 13.22L66.36 13.22Q64.82 11.14 64.82 8.04L64.82 8.04Q64.82 4.58 66.70 2.23L66.70 2.23Q68.47 0 71.23 0L71.23 0Q73.68 0 75.58 1.51ZM84.70 15.77L84.70 15.77Q81.41 15.77 79.58 13.06L79.58 13.06Q78.17 10.94 78.17 7.92L78.17 7.92Q78.17 4.42 80.04 2.16L80.04 2.16Q81.82 0 84.70 0L84.70 0Q87.98 0 89.81 2.74L89.81 2.74Q91.22 4.90 91.22 7.92L91.22 7.92Q91.22 11.42 89.35 13.66L89.35 13.66Q87.58 15.77 84.70 15.77ZM80.06 7.92L80.06 7.92Q80.06 10.94 81.38 12.65L81.38 12.65Q82.61 14.21 84.70 14.21L84.70 14.21Q87.10 14.21 88.32 12.19L88.32 12.19Q89.33 10.54 89.33 7.92L89.33 7.92Q89.33 4.90 88.01 3.17L88.01 3.17Q86.78 1.54 84.70 1.54L84.70 1.54Q82.32 1.54 81.07 3.62L81.07 3.62Q80.06 5.30 80.06 7.92ZM94.58 15.46L94.58 15.46L94.58 0.29Q96.60 0 98.23 0L98.23 0Q102.12 0 104.18 2.35L104.18 2.35Q105.98 4.39 105.98 7.73L105.98 7.73Q105.98 11.78 103.75 13.90L103.75 13.90Q101.78 15.77 98.35 15.77L98.35 15.77Q96.65 15.77 94.58 15.46ZM96.36 1.58L96.36 1.58L96.36 14.18Q97.25 14.33 98.35 14.33L98.35 14.33Q101.21 14.33 102.72 12.50L102.72 12.50Q104.09 10.82 104.09 7.82L104.09 7.82Q104.09 4.58 102.19 2.83L102.19 2.83Q100.66 1.42 98.28 1.42L98.28 1.42Q97.06 1.42 96.36 1.58ZM109.25 15.48L109.25 0.29L118.18 0.29L118.18 1.80L111.02 1.80L111.02 6.82L117.05 6.82L117.05 8.33L111.02 8.33L111.02 13.97L118.49 13.97L118.49 15.48L109.25 15.48ZM121.06 14.33L130.13 9.72L121.06 5.50L121.06 4.03L131.23 8.81L131.23 10.66L121.06 15.79L121.06 14.33Z" transform="translate(51, 6.4)"></path></svg>